<svg t="1679819100711" class="icon" viewBox="0 0 1024 1024" version="1.1" xmlns="http://www.w3.org/2000/svg" p-id="4436" width="200" height="200"><path d="M512 85.333c235.52 0 426.667 191.147 426.667 426.667S747.52 938.667 512 938.667 85.333 747.52 85.333 512 276.48 85.333 512 85.333z m0 597.334c94.421 0 170.667-76.246 170.667-170.667S606.42 341.333 512 341.333 341.333 417.58 341.333 512 417.58 682.667 512 682.667z m0-213.334c23.467 0 42.667 19.2 42.667 42.667s-19.2 42.667-42.667 42.667-42.667-19.2-42.667-42.667 19.2-42.667 42.667-42.667z" fill="#080808" p-id="4437"></path></svg>
